<svg width="44" height="45" viewBox="0 0 44 45" fill="none" xmlns="http://www.w3.org/2000/svg">
<circle cx="21.8937" cy="22.6242" r="21.7207" fill="white"/>
<path d="M19.6659 10.3716C14.4315 10.3716 10.1979 14.6052 10.1979 19.8396C10.1979 25.074 14.4315 29.3076 19.6659 29.3076C21.5347 29.3076 23.2642 28.7593 24.7306 27.8282L31.5705 34.6681L33.9375 32.3011L27.1846 25.5656C28.3985 23.9731 29.1339 21.9999 29.1339 19.8396C29.1339 14.6052 24.9003 10.3716 19.6659 10.3716ZM19.6659 12.5993C23.6754 12.5993 26.9061 15.83 26.9061 19.8396C26.9061 23.8491 23.6754 27.0798 19.6659 27.0798C15.6563 27.0798 12.4256 23.8491 12.4256 19.8396C12.4256 15.83 15.6563 12.5993 19.6659 12.5993Z" fill="#3833C3"/>
</svg>
