<svg width="37" height="37" viewBox="0 0 37 37" fill="none" xmlns="http://www.w3.org/2000/svg">
<g clip-path="url(#clip0_267_88)">
<path d="M4.99658 19.9998H13.9966V16.9998H4.99658V3.26879C4.9966 3.13846 5.03059 3.01039 5.09518 2.8972C5.15978 2.784 5.25275 2.6896 5.36495 2.62328C5.47714 2.55696 5.60468 2.52102 5.73499 2.51901C5.8653 2.517 5.99389 2.54897 6.10808 2.61179L33.8011 17.8428C33.9187 17.9075 34.0167 18.0027 34.085 18.1182C34.1533 18.2338 34.1894 18.3656 34.1894 18.4998C34.1894 18.634 34.1533 18.7658 34.085 18.8814C34.0167 18.9969 33.9187 19.0921 33.8011 19.1568L6.10808 34.3878C5.99389 34.4506 5.8653 34.4826 5.73499 34.4806C5.60468 34.4786 5.47714 34.4426 5.36495 34.3763C5.25275 34.31 5.15978 34.2156 5.09518 34.1024C5.03059 33.9892 4.9966 33.8611 4.99658 33.7308V19.9998Z" fill="white"/>
</g>
<defs>
<clipPath id="clip0_267_88">
<rect width="36" height="36" fill="white" transform="translate(0.496826 0.499695)"/>
</clipPath>
</defs>
</svg>
